<?xml version="1.0" encoding="utf-8"?>
<!-- Generator: Adobe Illustrator 28.1.0, SVG Export Plug-In . SVG Version: 6.00 Build 0)  -->
<svg version="1.1" id="Layer_1" xmlns="http://www.w3.org/2000/svg" xmlns:xlink="http://www.w3.org/1999/xlink" x="0px" y="0px"
	 viewBox="0 0 322.95 92.57" style="enable-background:new 0 0 322.95 92.57;" xml:space="preserve">
<g>
	<path d="M35.64,57.85c-1.78,0.79-3.63,1.32-5.61,1.32c-6.2,0-11.48-4.75-15.38-9.24c-1.58,2.44-4.82,6.67-8.05,6.67
		c-4.69,0-6.53-5.54-6.6-9.3c-0.07-4.82,2.18-10.49,7.79-10.49c2.71,0,4.16,1.32,5.94,3.3c4.88-10.76,8.12-22.17,11.61-33.46h-0.26
		c-2.18,0-4.09,0.46-5.87,1.65c-0.53,0.33-0.92,0.59-1.58,0.59c-1.52,0-2.77-1.39-2.77-2.84c-0.07-3.43,7.59-4.82,10.16-4.82
		c4.29,0,8.31,1.52,11.75,4.16c8.98,6.8,12.01,16.43,12.21,27.19C49.17,42.81,45.41,53.37,35.64,57.85z M8.45,42.21H7.99
		c-2.18,0-2.64,2.9-2.57,4.55c0,1.32,0.33,3.17,1.12,4.29c1.78-1.32,3.37-3.83,4.49-5.74C10.43,44.46,9.31,42.81,8.45,42.21z
		 M33.53,9.68c-0.92-0.73-1.85-1.32-2.9-1.78c-3.9,12.4-7.33,25.27-13.07,36.89c2.84,3.7,7,8.97,12.14,8.97
		c1.32,0,2.38-0.26,3.63-0.79c7.72-3.37,10.36-12.6,10.23-20.39C43.43,23.6,41.05,15.29,33.53,9.68z"/>
	<path d="M57.09,50.4c-0.46,0.99-1.91,3.1-2.64,5.02c-0.59,1.78-1.78,2.24-2.77,2.24c-1.45,0-2.77-1.19-2.71-2.57
		c0.07-1.72,14.45-27.32,16.17-30.49c0.53-0.99,1.52-1.85,2.64-1.85c1.45,0,2.24,1.32,2.38,2.71l2.9,27.26v0.46
		c0.07,1.58-1.39,2.57-2.84,2.57c-2.97,0-2.64-3.23-2.84-5.35C67.38,50.4,57.09,50.4,57.09,50.4z M59.99,45.12h6.86l-1.19-10.49
		L59.99,45.12z"/>
	<path d="M93.32,53.3L92.8,37.92l-7.72,16.23c-0.53,1.06-1.45,1.91-2.71,1.91c-1.58,0-2.38-1.39-2.38-2.77l-0.86-28.51v-0.26
		c0-1.52,1.39-2.51,2.84-2.51s2.51,0.99,2.57,2.44L85,42l7.59-16.1c0.46-1.06,1.52-1.98,2.71-1.98c1.52,0,2.38,1.45,2.44,2.9
		L98.27,42l7.92-17.03c0.46-0.92,1.39-1.58,2.44-1.58c1.39,0,2.77,1.12,2.71,2.51c-0.07,1.52-11.48,25.14-12.87,28.18
		c-0.53,1.06-1.52,1.98-2.71,1.98C94.18,56.07,93.39,54.75,93.32,53.3z"/>
	<path d="M129.69,52.91c-2.51-5.94-4.62-12.14-6.93-18.21l-4.09,18.61c-0.26,1.32-1.25,2.11-2.64,2.11c-1.45,0-2.71-0.99-2.64-2.51
		l0.07-0.59l5.87-26.66c0.33-1.45,1.85-2.24,3.1-2.24c0.99,0,2.11,0.92,2.51,1.72c0.73,1.45,1.25,3.37,1.78,5.02
		c1.72,4.69,3.37,9.5,4.88,14.32l4.16-18.81c0.33-1.32,1.32-2.24,2.64-2.24c1.52,0,2.77,1.06,2.71,2.57l-0.07,0.59l-6.01,26.99
		c-0.13,0.92-1.32,2.24-2.31,2.24C131.01,55.81,130.28,54.29,129.69,52.91z"/>
	<path d="M187.45,31.79c-3.63,1.32-7.33,2.05-11.22,2.57h-0.33c-0.92,0-1.78-0.4-2.24-1.19l-8.91,23.23
		c-0.4,1.06-1.25,1.72-2.38,1.72c-1.45,0-2.9-1.12-2.9-2.64c0-0.33,0.07-0.73,0.2-1.06l16.5-42.96c0.4-1.06,1.25-1.72,2.38-1.72
		c1.45,0,2.84,1.12,2.9,2.64c0,0.33-0.13,0.73-0.26,1.06l-5.94,15.57l0.33-0.07c8.58-1.72,19.27-3.96,22.44-13.2
		c0.2-0.59,0.33-1.32,0.33-1.98c-0.07-4.16-4.42-6.6-8.05-7.19c-2.11-0.33-4.29-0.4-6.4-0.4c-5.81,0-12.01,0.59-17.55,2.31
		c-0.33,0.07-0.59,0.13-0.99,0.13c-1.52,0-2.64-1.32-2.64-2.84c0-1.25,0.73-1.98,1.78-2.44c4.4-1.77,14.44-2.56,19.25-2.56
		c2.38,0,4.82,0.07,7.26,0.46c6.6,0.99,12.47,5.02,12.6,12.27C203.75,22.61,195.1,29.02,187.45,31.79z"/>
	<path d="M201.18,50.4c-0.46,0.99-1.91,3.1-2.64,5.02c-0.59,1.78-1.78,2.24-2.77,2.24c-1.45,0-2.77-1.19-2.71-2.57
		c0.07-1.72,14.45-27.32,16.17-30.49c0.53-0.99,1.52-1.85,2.64-1.85c1.45,0,2.24,1.32,2.38,2.71l2.9,27.26v0.46
		c0.07,1.58-1.39,2.57-2.84,2.57c-2.97,0-2.64-3.23-2.84-5.35C211.47,50.4,201.18,50.4,201.18,50.4z M204.08,45.12h6.86l-1.19-10.49
		L204.08,45.12z"/>
	<path d="M230.75,53.57c-0.26,1.32-1.32,2.24-2.64,2.24c-1.45,0-2.71-1.06-2.71-2.57l0.13-0.59l5.21-23.96h-7.13
		c-1.25,0-2.24-0.99-2.18-2.31c0-1.65,1.19-2.97,2.84-2.97h20c1.32,0,1.91,1.12,1.91,2.31c0,1.45-0.99,2.97-2.51,2.97h-7.52
		L230.75,53.57z"/>
	<path d="M265.13,53.37c-0.07,1.45-1.52,2.51-2.9,2.51c-1.12,0-1.98-0.66-2.38-1.65l-4.29-10.36h-3.1l-2.24,9.83
		c-0.26,1.32-1.25,2.18-2.64,2.18c-1.45,0-2.71-1.06-2.64-2.51l0.06-0.6l6.2-28.11c0.33-1.58,1.45-1.25,2.77-1.25h8.32
		c4.62,0,7.33,4.36,7.19,8.71c-0.2,4.62-3.7,9.9-8.25,11.35C261.9,45.05,265.13,52.11,265.13,53.37z M255.76,28.69l-2.11,9.9h5.67
		c2.38,0,4.75-4.55,4.82-6.53c0-1.19-0.59-3.37-2.05-3.37C262.09,28.69,255.76,28.69,255.76,28.69z"/>
	<path d="M271.93,42.48c0.33-8.58,7.39-19.34,16.83-19.34c7.39,0,10.82,6.6,10.56,13.26c-0.26,8.58-7.33,19.34-16.7,19.34
		C275.16,55.74,271.67,49.14,271.93,42.48z M277.28,42.74c-0.13,3.37,1.45,7.72,5.48,7.72c6.47,0,11.15-8.71,11.29-14.32
		c0.13-3.37-1.45-7.72-5.48-7.72C282.09,28.42,277.48,37.2,277.28,42.74z"/>
	<path d="M302.62,53.63c0-0.26,0.07-0.59,0.13-0.92c0.99-5.35,2.24-10.56,3.37-15.9c0.79-3.7,1.45-7.52,2.44-11.15
		c0.33-1.39,1.25-2.24,2.64-2.24c1.45,0,2.71,1.06,2.64,2.57l-0.07,0.53l-5.15,23.63h11.75c1.45,0,2.57,1.06,2.57,2.64
		c-0.07,1.58-1.25,2.64-2.77,2.64H304.4C303.22,55.41,302.56,54.88,302.62,53.63z"/>
</g>
<g>
	<path d="M20.38,75.11c-0.2,0.48-0.39,0.78-0.95,0.81c-0.62,0.06-1.23-0.36-1.32-1.01c0-0.17,0.03-0.31,0.06-0.45
		c0.22-0.87,0.39-1.74,0.34-2.63c-0.14-1.46-0.95-2.02-2.35-1.9C10.14,70.35,4.17,80.57,4.65,86.14c0.2,2.07,1.23,4,3.58,3.84
		c1.23-0.08,2.77-0.95,3.44-1.96c0.28-0.36,0.14-0.22,0.31-0.59c0.22-0.5,0.36-0.78,0.95-0.84c0.62-0.03,1.26,0.36,1.32,1.01
		c0,0.17-0.03,0.31-0.06,0.45c-0.67,2.3-3.42,4.06-5.74,4.23c-3.67,0.25-5.8-2.6-6.1-5.96c-0.59-6.89,6.27-18.17,13.61-18.68
		c2.66-0.2,4.59,1.34,4.84,4.03C20.86,72.59,20.72,74.21,20.38,75.11z"/>
	<path d="M16.07,85.66c0.14-3.64,3.14-8.2,7.14-8.2c3.14,0,4.59,2.8,4.48,5.63c-0.11,3.64-3.11,8.2-7.08,8.2
		C17.44,91.29,15.96,88.49,16.07,85.66z M18.34,85.77c-0.06,1.43,0.62,3.28,2.32,3.28c2.74,0,4.73-3.7,4.79-6.08
		c0.06-1.43-0.62-3.28-2.32-3.28C20.38,79.7,18.42,83.42,18.34,85.77z"/>
	<path d="M32.37,83.53h3.5c0.67,0,1.12,0.45,1.12,1.12c-0.03,0.64-0.53,1.12-1.2,1.12h-3.92l-0.98,4.45
		c-0.11,0.56-0.56,0.92-1.15,0.92s-1.12-0.42-1.09-1.09l0.03-0.22l2.46-11.31c0.11-0.48,0.7-0.95,1.18-0.95h6.19
		c0.64,0,1.12,0.48,1.09,1.12c-0.03,0.67-0.5,1.12-1.18,1.12h-5.26L32.37,83.53z"/>
	<path d="M43.15,83.53h3.5c0.67,0,1.12,0.45,1.12,1.12c-0.03,0.64-0.53,1.12-1.2,1.12h-3.92l-0.98,4.45
		c-0.11,0.56-0.56,0.92-1.15,0.92s-1.12-0.42-1.09-1.09l0.03-0.22l2.46-11.31c0.11-0.48,0.7-0.95,1.18-0.95h6.19
		c0.64,0,1.12,0.48,1.09,1.12c-0.03,0.67-0.5,1.12-1.18,1.12h-5.26L43.15,83.53z"/>
	<path d="M53.93,83.53h3.95c0.67,0,1.15,0.45,1.12,1.12c-0.03,0.64-0.53,1.12-1.2,1.12h-4.37l-0.67,3.14h4.9
		c0.64,0,1.09,0.45,1.09,1.12s-0.53,1.12-1.18,1.12H51.3c-0.53,0-1.2-0.22-1.18-0.81l0.03-0.2c0.2-1.74,0.76-3.53,1.15-5.24
		c0.48-2.13,0.84-4.31,1.4-6.38c0.14-0.48,0.67-0.95,1.18-0.95h6.19c0.64,0,1.12,0.48,1.09,1.12c-0.03,0.67-0.5,1.12-1.18,1.12
		h-5.26L53.93,83.53z"/>
	<path d="M65.18,83.53h3.95c0.67,0,1.15,0.45,1.12,1.12c-0.03,0.64-0.53,1.12-1.2,1.12h-4.37l-0.67,3.14h4.9
		c0.64,0,1.09,0.45,1.09,1.12s-0.53,1.12-1.18,1.12h-6.27c-0.53,0-1.2-0.22-1.18-0.81l0.03-0.2c0.2-1.74,0.76-3.53,1.15-5.24
		c0.48-2.13,0.84-4.31,1.4-6.38c0.14-0.48,0.67-0.95,1.18-0.95h6.19c0.64,0,1.12,0.48,1.09,1.12c-0.03,0.67-0.5,1.12-1.18,1.12
		h-5.26L65.18,83.53z"/>
	<path d="M102.06,75.11c-0.2,0.48-0.39,0.78-0.95,0.81c-0.62,0.06-1.23-0.36-1.32-1.01c0-0.17,0.03-0.31,0.06-0.45
		c0.22-0.87,0.39-1.74,0.34-2.63c-0.14-1.46-0.95-2.02-2.35-1.9c-6.02,0.42-11.98,10.64-11.51,16.21c0.2,2.07,1.23,4,3.58,3.84
		c1.23-0.08,2.77-0.95,3.44-1.96c0.28-0.36,0.14-0.22,0.31-0.59c0.22-0.5,0.36-0.78,0.95-0.84c0.62-0.03,1.26,0.36,1.32,1.01
		c0,0.17-0.03,0.31-0.06,0.45c-0.67,2.3-3.42,4.06-5.74,4.23c-3.67,0.25-5.8-2.6-6.1-5.96c-0.59-6.89,6.27-18.17,13.61-18.68
		c2.66-0.2,4.59,1.34,4.84,4.03C102.54,72.59,102.39,74.21,102.06,75.11z"/>
	<path d="M97.75,85.66c0.14-3.64,3.14-8.2,7.14-8.2c3.14,0,4.59,2.8,4.48,5.63c-0.11,3.64-3.11,8.2-7.08,8.2
		C99.12,91.29,97.64,88.49,97.75,85.66z M100.02,85.77c-0.06,1.43,0.62,3.28,2.32,3.28c2.74,0,4.73-3.7,4.79-6.08
		c0.06-1.43-0.62-3.28-2.32-3.28C102.06,79.7,100.1,83.42,100.02,85.77z"/>
	<path d="M119.7,90.09c0.08-1.96,0.53-4.12,0.76-6.1l-3.39,6.16c-0.25,0.42-0.64,0.76-1.12,0.76c-0.64,0-0.98-0.56-1.01-1.12
		l-0.53-5.99l-2.24,6.55c-0.17,0.5-0.59,0.81-1.09,0.81c-0.59,0-1.15-0.45-1.15-1.06c0.03-0.53,3.53-10.5,3.92-11.7
		c0.17-0.5,0.78-0.81,1.26-0.81c0.84,0,1.23,0.78,1.32,1.51c0.22,2.21,0.28,4.51,0.45,6.78l4.26-7.67c0.22-0.36,0.81-0.62,1.2-0.62
		c0.59,0,1.15,0.5,1.09,1.09v0.14L122,90.14c-0.08,0.62-0.56,1.01-1.18,1.01C120.2,91.15,119.7,90.73,119.7,90.09z"/>
	<path d="M127.01,90.23c-0.11,0.56-0.56,0.92-1.12,0.92c-0.62,0-1.15-0.42-1.12-1.09l0.03-0.22l2.49-11.31
		c0.14-0.64,0.67-0.95,1.23-0.95h4.12c2.07,0,3.33,1.74,3.25,3.72c-0.08,2.38-2.21,5.35-4.82,5.35h-3.28L127.01,90.23z M129.3,79.81
		l-1.01,4.62h2.86c1.29,0,2.41-2.04,2.46-3.14c0-0.67-0.31-1.48-1.06-1.48H129.3z"/>
	<path d="M138.12,89.02c-0.2,0.42-0.81,1.32-1.12,2.13c-0.25,0.76-0.76,0.95-1.18,0.95c-0.62,0-1.18-0.5-1.15-1.09
		c0.03-0.73,6.13-11.59,6.86-12.94c0.22-0.42,0.64-0.78,1.12-0.78c0.62,0,0.95,0.56,1.01,1.15L144.89,90v0.2
		c0.03,0.67-0.59,1.09-1.2,1.09c-1.26,0-1.12-1.37-1.2-2.27C142.49,89.02,138.12,89.02,138.12,89.02z M139.36,86.78h2.91l-0.5-4.45
		L139.36,86.78z"/>
	<path d="M154.05,90.09c-1.06-2.52-1.96-5.15-2.94-7.73l-1.74,7.9c-0.11,0.56-0.53,0.9-1.12,0.9c-0.62,0-1.15-0.42-1.12-1.06
		l0.03-0.25l2.49-11.31c0.14-0.62,0.78-0.95,1.32-0.95c0.42,0,0.9,0.39,1.06,0.73c0.31,0.62,0.53,1.43,0.76,2.13
		c0.73,1.99,1.43,4.03,2.07,6.08l1.76-7.98c0.14-0.56,0.56-0.95,1.12-0.95c0.64,0,1.18,0.45,1.15,1.09l-0.03,0.25l-2.55,11.45
		c-0.06,0.39-0.56,0.95-0.98,0.95C154.61,91.32,154.31,90.67,154.05,90.09z"/>
	<path d="M164.75,90.45c-0.14,0.56-0.59,0.95-1.15,0.95c-0.62,0-1.15-0.48-1.12-1.09c0.03-1.18,0.7-3.42,0.98-4.62
		c-0.28-0.95-1.93-6.44-1.9-7.03c0.03-0.62,0.62-1.09,1.23-1.09c0.5,0,0.87,0.34,1.01,0.81l1.32,4.7l3.61-4.98
		c0.2-0.34,0.56-0.53,0.92-0.53c0.59,0,1.18,0.5,1.15,1.12c-0.03,0.81-4.4,6.41-5.12,7.42L164.75,90.45z"/>
</g>
<text transform="matrix(1 0 0 1 362.1966 -72.3421)" style="font-family:'HermesRegular'; font-size:52px;">Dawn Patrol</text>
<text transform="matrix(1 0 0 1 697.2266 -72.3421)" style="font-family:'HermesRegular'; font-size:28px;"> </text>
<text transform="matrix(1 0 0 1 362.1966 -42.3421)" style="font-family:'HermesRegular'; font-size:25px;">Coffee Company</text>
<text transform="matrix(1 0 0 1 359.88 40.2496)" style="font-family:'TAYLennonRegular'; font-size:40px;">Dawn Patrol</text>
<text transform="matrix(1 0 0 1 700 40.2496)" style="font-family:'TAYLennonRegular'; font-size:28px;"> </text>
<text transform="matrix(1 0 0 1 359.88 61.8496)" style="font-family:'TAYLennonRegular'; font-size:18px;">Coffee Company</text>
</svg>
