<?xml version="1.0" encoding="utf-8"?>
<!-- Generator: Adobe Illustrator 28.1.0, SVG Export Plug-In . SVG Version: 6.00 Build 0)  -->
<svg version="1.1" id="Layer_1" xmlns="http://www.w3.org/2000/svg" xmlns:xlink="http://www.w3.org/1999/xlink" x="0px" y="0px"
	 viewBox="0 0 50.2 22.3" style="enable-background:new 0 0 50.2 22.3;" xml:space="preserve">
<style type="text/css">
	.st0{fill:#DAD4C4;}
</style>
<path class="st0" d="M8.9,5.8C9.6,8,8.2,10.3,5,10.3c-2.9,0-4.4-1.8-4.4-5.1S2,0.1,4.8,0.1c1.8,0,2.5,0.6,2.8,1.8
	C7.8,1.2,8,0.4,8.3,0.1l1.5,0.8c-0.7,1-1,2.4-1,3.4v0.2H7.5C7.4,3.9,6.7,3.4,4.8,3.4C2.7,3.4,2,4,2,5.2C2,6.4,2.7,7,4.9,7
	c1.9,0,2.8-0.3,2.6-1.2L8.9,5.8L8.9,5.8z"/>
<path class="st0" d="M10.1,5.2c0-3.3,1.5-5.1,4.3-5.1s4.3,1.8,4.3,5.1s-1.5,5.1-4.3,5.1S10.1,8.6,10.1,5.2L10.1,5.2z M17.3,5.2
	c0-1.2-0.8-1.8-2.9-1.8S11.5,4,11.5,5.2c0,1.3,0.7,1.8,2.9,1.8S17.3,6.4,17.3,5.2z"/>
<path class="st0" d="M20.9,6.4V4.5c0-0.7-0.1-1-1.7-1.3v-3h4.7v3c-1.6,0.1-1.8,0.5-1.8,1.3v1.1c0,0.9,0.2,1.4,2.2,1.4
	s2.2-0.5,2.2-1.4V4.5c0-0.8-0.2-1.2-1.8-1.3v-3h4.7v3c-1.4,0.2-1.6,0.6-1.6,1.3v1.9c0,2.4-0.8,3.9-3.5,3.9S20.8,8.8,20.9,6.4
	L20.9,6.4z"/>
<path class="st0" d="M38.3,5.8c0.7,2.2-0.7,4.5-3.9,4.5c-2.9,0-4.4-1.8-4.4-5.1s1.5-5.1,4.3-5.1c1.8,0,2.5,0.6,2.8,1.8
	c0.1-0.7,0.3-1.4,0.7-1.8l1.5,0.8c-0.7,1-1,2.4-1,3.4v0.2H37c-0.1-0.6-0.8-1.1-2.7-1.1c-2.1,0-2.9,0.6-2.9,1.8
	c0,1.3,0.7,1.8,2.9,1.8c1.9,0,2.8-0.3,2.6-1.2C37,5.8,38.3,5.8,38.3,5.8z"/>
<path class="st0" d="M48.3,4.5v1.4c0,0.8,0.2,1.1,1.6,1.3v3h-4.6V7.4C46.8,7.2,47,6.7,47,5.9V5.6h-4.2v0.3c0,0.8,0.2,1.4,1.7,1.5
	v2.8h-4.6v-3c1.5-0.2,1.7-0.6,1.7-1.3V4.5c0-0.7-0.2-1-1.7-1.3v-3h4.6V3c-1.4,0.1-1.7,0.7-1.7,1.5v0.1H47V4.5c0-0.8-0.2-1.4-1.7-1.5
	V0.2h4.6v3C48.5,3.4,48.3,3.7,48.3,4.5z"/>
<path class="st0" d="M10.3,19.2v3H5.8v-2.8c1.4-0.2,1.4-0.6,1.1-1.3l-0.2-0.5H3.5V18c0,0.8,0.2,1.3,1.6,1.4v2.8H0.5v-3
	c1.5-0.2,1.7-0.6,1.7-1.3v-1.4c0-0.7-0.2-1.1-1.7-1.3v-3h5.9c1.8,0,3,0.7,3,2.8c0,1.4-0.6,2.1-1.5,2.4L8.2,18
	C8.5,18.7,8.9,18.9,10.3,19.2L10.3,19.2z M3.5,16.6h3c0.9,0,1.4-0.1,1.4-0.8c0-0.6-0.5-0.7-1.3-0.7H4.9c-1.4,0-1.4,0.5-1.4,1.3V16.6
	L3.5,16.6z"/>
<path class="st0" d="M11.1,17.2c0-3.4,1.5-5.1,4.3-5.1s4.3,1.8,4.3,5.1s-1.5,5.1-4.3,5.1S11.1,20.5,11.1,17.2z M18.3,17.2
	c0-1.2-0.8-1.8-2.9-1.8s-2.9,0.6-2.9,1.8c0,1.3,0.7,1.8,2.9,1.8S18.3,18.4,18.3,17.2z"/>
<path class="st0" d="M20.8,19.2c1.4-0.2,1.7-0.5,1.7-1.3v-1.4c0-0.7-0.2-1.1-1.7-1.3v-3h5.3c2.7,0,3.9,1.6,3.9,5s-1.3,5-3.9,5h-5.3
	V19.2L20.8,19.2z M26.6,19c1.3,0,2-0.5,2-1.8c0-1.2-0.6-1.8-2-1.8h-1.9c-0.7,0-1,0.3-1,0.8v1.9c0,0.5,0.3,0.9,1,0.9L26.6,19L26.6,19
	z"/>
<path class="st0" d="M40.3,19.7v2.4h-9.2v-3c1.5-0.2,1.7-0.5,1.7-1.3v-1.4c0-0.7-0.2-1.1-1.7-1.3v-3h9.1v2.4
	c-0.7,0.3-0.7,0.4-0.7,1.1v0.8h-1.3v-0.9c0-0.6-0.5-0.7-1-0.7h-2c-1.2,0-1.3,0.5-1.3,1.3v0.4h1.2c1,0,1-0.2,1.1-1.1h1v3.2h-1
	c-0.1-0.8-0.1-1.2-1.1-1.2H34v0.6c0,0.8,0.1,1.3,1.3,1.3h2c0.5,0,1-0.1,1-0.7v-1h1.3v0.9C39.5,19.3,39.5,19.4,40.3,19.7L40.3,19.7z"
	/>
<path class="st0" d="M41.3,17.2c0-3.4,1.5-5.1,4.3-5.1s4.3,1.8,4.3,5.1s-1.5,5.1-4.3,5.1S41.3,20.5,41.3,17.2z M48.5,17.2
	c0-1.2-0.8-1.8-2.9-1.8s-2.9,0.6-2.9,1.8c0,1.3,0.7,1.8,2.9,1.8S48.5,18.4,48.5,17.2z"/>
</svg>
