<?xml version="1.0" encoding="UTF-8"?>
<svg id="Layer_1" data-name="Layer 1" xmlns="http://www.w3.org/2000/svg" viewBox="0 0 50.15 22.29">
  <defs>
    <style>
      .cls-1 {
        fill: #73464e;
        stroke-width: 0px;
      }
    </style>
  </defs>
  <path class="cls-1" d="M8.87,5.79c.71,2.25-.67,4.51-3.89,4.51-2.94,0-4.41-1.75-4.41-5.13S2.03.07,4.83.07c1.76,0,2.51.56,2.83,1.77.1-.69.34-1.4.66-1.79l1.53.77c-.69,1.01-1,2.41-1,3.42v.25h-1.36c-.1-.64-.83-1.09-2.66-1.09-2.14,0-2.86.62-2.86,1.78,0,1.26.74,1.79,2.9,1.79,1.89,0,2.76-.32,2.62-1.18h1.37Z"/>
  <path class="cls-1" d="M10.12,5.17C10.12,1.82,11.59.07,14.44.07s4.31,1.75,4.31,5.1-1.48,5.13-4.31,5.13-4.31-1.75-4.31-5.13ZM17.34,5.17c0-1.16-.76-1.78-2.9-1.78s-2.9.62-2.9,1.78c0,1.26.74,1.79,2.9,1.79s2.9-.53,2.9-1.79Z"/>
  <path class="cls-1" d="M20.86,6.42v-1.93c0-.74-.15-1.05-1.67-1.3V.21h4.74v2.97c-1.56.14-1.75.45-1.75,1.3v1.09c0,.88.17,1.39,2.21,1.39s2.21-.52,2.21-1.39v-1.09c0-.85-.24-1.16-1.78-1.3V.21h4.73v2.97c-1.44.25-1.65.56-1.65,1.3v1.93c0,2.4-.78,3.88-3.52,3.88s-3.53-1.47-3.53-3.88Z"/>
  <path class="cls-1" d="M38.35,5.79c.71,2.25-.67,4.51-3.89,4.51-2.94,0-4.41-1.75-4.41-5.13S31.52.07,34.32.07c1.76,0,2.51.56,2.83,1.77.1-.69.34-1.4.66-1.79l1.53.77c-.69,1.01-1,2.41-1,3.42v.25h-1.36c-.1-.64-.83-1.09-2.66-1.09-2.14,0-2.86.62-2.86,1.78,0,1.26.74,1.79,2.9,1.79,1.89,0,2.76-.32,2.62-1.18h1.37Z"/>
  <path class="cls-1" d="M48.3,4.48v1.39c0,.76.2,1.06,1.64,1.3v2.98h-4.62v-2.77c1.43-.14,1.67-.66,1.67-1.51v-.29h-4.22v.29c0,.85.21,1.37,1.65,1.51v2.77h-4.62v-2.98c1.51-.24,1.67-.55,1.67-1.3v-1.39c0-.74-.15-1.05-1.67-1.3V.21h4.62v2.76c-1.44.14-1.65.66-1.65,1.51v.13h4.22v-.13c0-.85-.24-1.37-1.67-1.51V.21h4.62v2.97c-1.44.25-1.64.56-1.64,1.3Z"/>
  <path class="cls-1" d="M10.34,19.19v2.97h-4.58v-2.76c1.43-.25,1.44-.64,1.11-1.27l-.25-.52h-3.11v.39c0,.76.21,1.27,1.58,1.4v2.76H.53v-2.97c1.51-.25,1.67-.56,1.67-1.32v-1.39c0-.74-.15-1.05-1.67-1.3v-2.97h5.87c1.79,0,3,.66,3,2.8,0,1.44-.62,2.14-1.53,2.44l.31.6c.36.62.7.88,2.16,1.13ZM3.5,16.65h3c.94,0,1.37-.1,1.37-.78,0-.64-.46-.74-1.33-.74h-1.64c-1.4,0-1.4.48-1.4,1.32v.21Z"/>
  <path class="cls-1" d="M11.09,17.17c0-3.35,1.47-5.1,4.31-5.1s4.31,1.75,4.31,5.1-1.49,5.13-4.31,5.13-4.31-1.75-4.31-5.13ZM18.3,17.17c0-1.16-.76-1.78-2.9-1.78s-2.9.62-2.9,1.78c0,1.26.74,1.79,2.9,1.79s2.9-.53,2.9-1.79Z"/>
  <path class="cls-1" d="M20.75,19.17c1.44-.24,1.67-.55,1.67-1.3v-1.39c0-.74-.22-1.05-1.67-1.3v-2.97h5.34c2.66,0,3.94,1.61,3.94,4.96s-1.28,4.99-3.94,4.99h-5.34v-2.98ZM26.6,18.98c1.34,0,1.99-.53,1.99-1.81,0-1.18-.64-1.78-1.99-1.78h-1.92c-.69,0-.97.31-.97.84v1.89c0,.45.28.85.99.85h1.89Z"/>
  <path class="cls-1" d="M40.27,19.73v2.42h-9.2v-3c1.51-.24,1.65-.55,1.65-1.29v-1.39c0-.74-.15-1.05-1.67-1.3v-2.97h9.15v2.41c-.74.28-.73.38-.73,1.09v.77h-1.26v-.91c0-.6-.45-.67-.95-.67h-1.97c-1.16,0-1.26.49-1.26,1.33v.39h1.15c1,0,.95-.24,1.09-1.05h.98v3.18h-.98c-.14-.84-.1-1.18-1.09-1.18h-1.15v.57c0,.84.1,1.3,1.26,1.3h2.04c.5,0,.95-.07.95-.67v-.99h1.26v.85c0,.71-.01.81.73,1.09Z"/>
  <path class="cls-1" d="M41.33,17.17c0-3.35,1.47-5.1,4.31-5.1s4.31,1.75,4.31,5.1-1.49,5.13-4.31,5.13-4.31-1.75-4.31-5.13ZM48.54,17.17c0-1.16-.76-1.78-2.9-1.78s-2.9.62-2.9,1.78c0,1.26.74,1.79,2.9,1.79s2.9-.53,2.9-1.79Z"/>
</svg>